<svg xmlns="http://www.w3.org/2000/svg" width="22.815" height="24.503" viewBox="0 0 22.815 24.503">
  <g id="notification-new" transform="translate(-3.373 -1.125)">
    <path id="Path_25" data-name="Path 25" d="M22.808,15.151v-2.2h-1.69v2.535a.769.769,0,0,0,.253.591l2.282,2.282v1.352H5.064V18.362L7.346,16.08a.769.769,0,0,0,.253-.591V11.264A6.759,6.759,0,0,1,14.358,4.5a6.665,6.665,0,0,1,3.379.92V3.491A8.2,8.2,0,0,0,15.2,2.815V1.125h-1.69v1.69a8.576,8.576,0,0,0-7.6,8.449v3.887L3.628,17.432a.769.769,0,0,0-.253.591v2.535a.794.794,0,0,0,.845.845h5.914a4.225,4.225,0,0,0,8.449,0H24.5a.794.794,0,0,0,.845-.845V18.024a.769.769,0,0,0-.253-.591Zm-8.449,8.787A2.535,2.535,0,0,1,11.824,21.4h5.07a2.535,2.535,0,0,1-2.535,2.535Z" fill="#a0a5b9"/>
    <path id="Path_26" data-name="Path 26" d="M31.509,7.88A3.38,3.38,0,1,1,28.13,4.5,3.38,3.38,0,0,1,31.509,7.88Z" transform="translate(-5.322 -0.84)" fill="#a0a5b9"/>
  </g>
</svg>
