<svg xmlns="http://www.w3.org/2000/svg" width="27.555" height="21.288" viewBox="0 0 27.555 21.288">
  <g id="speaker-svgrepo-com" transform="translate(0 -55.15)">
    <g id="Group_39592" data-name="Group 39592" transform="translate(0 55.15)">
      <path id="Path_10659" data-name="Path 10659" d="M16.05,55.15a10.63,10.63,0,0,0-8.988,4.937H2.994A3,3,0,0,0,0,63.081v5.426A3,3,0,0,0,2.994,71.5H7.062a10.63,10.63,0,0,0,8.988,4.937.764.764,0,0,0,.767-.767V55.917A.767.767,0,0,0,16.05,55.15ZM6.727,69.967H2.994a1.46,1.46,0,0,1-1.46-1.46V63.081a1.46,1.46,0,0,1,1.46-1.46H6.727v8.346Zm8.556,4.909a9.157,9.157,0,0,1-7.022-4.352V61.07a9.157,9.157,0,0,1,7.022-4.352Z" transform="translate(0 -55.15)" fill="#a0a5b9"/>
      <path id="Path_10660" data-name="Path 10660" d="M328.857,135.639a.768.768,0,0,0-.875,1.261,5.71,5.71,0,0,1,0,9.374.772.772,0,0,0-.193,1.068.769.769,0,0,0,1.068.193,7.247,7.247,0,0,0,0-11.9Z" transform="translate(-309.035 -130.935)" fill="#a0a5b9"/>
      <path id="Path_10661" data-name="Path 10661" d="M381.057,79.739A.768.768,0,1,0,380.182,81a9.569,9.569,0,0,1,0,15.715.773.773,0,0,0-.193,1.068.769.769,0,0,0,1.068.193,11.105,11.105,0,0,0,0-18.238Z" transform="translate(-358.269 -78.211)" fill="#a0a5b9"/>
    </g>
  </g>
</svg>
